<svg width="25" height="24" viewBox="0 0 25 24" fill="none" xmlns="http://www.w3.org/2000/svg">
<path fill-rule="evenodd" clip-rule="evenodd" d="M8.50625 2.93305C8.5182 2.94102 8.5302 2.94901 8.54222 2.95703L19.091 9.98954C19.3962 10.193 19.6792 10.3816 19.8965 10.5569C20.1234 10.7398 20.3908 10.9935 20.5447 11.3646C20.7481 11.8551 20.7481 12.4064 20.5447 12.8969C20.3908 13.268 20.1234 13.5217 19.8965 13.7046C19.6792 13.8799 19.3962 14.0685 19.091 14.2719L8.50628 21.3284C8.13319 21.5772 7.79771 21.8008 7.51305 21.9551C7.22818 22.1095 6.83717 22.2859 6.3808 22.2587C5.79705 22.2238 5.25779 21.9352 4.90498 21.4688C4.62916 21.1042 4.55905 20.681 4.52949 20.3584C4.49994 20.0359 4.49997 19.6327 4.5 19.1844L4.5 5.12036C4.5 5.1059 4.5 5.09149 4.5 5.07712C4.49997 4.62872 4.49994 4.22552 4.52949 3.9031C4.55905 3.58045 4.62916 3.15725 4.90498 2.79264C5.25779 2.32626 5.79705 2.03766 6.3808 2.00281C6.83717 1.97556 7.22818 2.15197 7.51305 2.30635C7.79771 2.46062 8.13318 2.68429 8.50625 2.93305ZM6.52513 4.04619C6.52378 4.05831 6.52244 4.07142 6.52114 4.08559C6.50101 4.30533 6.5 4.61491 6.5 5.12036V19.1411C6.5 19.6466 6.50101 19.9561 6.52114 20.1759C6.52244 20.19 6.52378 20.2032 6.52512 20.2153C6.53595 20.2097 6.54761 20.2035 6.56011 20.1967C6.75412 20.0916 7.01227 19.9207 7.43282 19.6403L17.9484 12.63C18.2982 12.3967 18.5033 12.2589 18.641 12.1478C18.6485 12.1418 18.6554 12.1361 18.6618 12.1307C18.6554 12.1254 18.6485 12.1197 18.641 12.1137C18.5033 12.0026 18.2982 11.8647 17.9484 11.6315L7.43282 4.62113C7.01227 4.34076 6.75412 4.16987 6.56011 4.06473C6.54761 4.05795 6.53595 4.05179 6.52513 4.04619Z" fill="#AFC4C6"/>
</svg>
