<svg width="160" height="160" viewBox="0 0 160 160" fill="none" xmlns="http://www.w3.org/2000/svg">
<g clip-path="url(#clip0_144_80569)">
<path d="M0 80C0 101.217 8.42855 121.566 23.4315 136.569C38.4344 151.571 58.7827 160 80 160C101.217 160 121.566 151.571 136.569 136.569C151.571 121.566 160 101.217 160 80C160 58.7827 151.571 38.4344 136.569 23.4315C121.566 8.42855 101.217 0 80 0C58.7827 0 38.4344 8.42855 23.4315 23.4315C8.42855 38.4344 0 58.7827 0 80Z" fill="white"/>
<path fill-rule="evenodd" clip-rule="evenodd" d="M24.5636 110.723C24.8396 110.716 25.069 110.934 25.0758 111.21C25.1821 115.486 26.7647 119.594 29.555 122.835C29.7351 123.045 29.7115 123.36 29.5022 123.541C29.2929 123.721 28.9772 123.697 28.797 123.488C25.8562 120.071 24.1882 115.742 24.0761 111.235C24.0693 110.959 24.2875 110.729 24.5636 110.723Z" fill="#394647"/>
<path fill-rule="evenodd" clip-rule="evenodd" d="M20.8126 117.34C21.0748 117.253 21.3576 117.395 21.4443 117.657C22.8217 121.823 25.579 125.393 29.2607 127.779C29.4924 127.929 29.5586 128.239 29.4084 128.47C29.2582 128.702 28.9486 128.768 28.7169 128.618C24.8442 126.109 21.9437 122.353 20.4949 117.971C20.4082 117.709 20.5504 117.426 20.8126 117.34Z" fill="#394647"/>
<path fill-rule="evenodd" clip-rule="evenodd" d="M108.438 88.7516C108.641 88.5649 108.958 88.5785 109.144 88.782C110.456 90.2116 111.339 91.9324 111.604 94.0392C111.867 96.138 111.512 98.5862 110.408 101.473C110.309 101.731 110.02 101.86 109.762 101.761C109.504 101.663 109.375 101.374 109.474 101.116C110.538 98.3338 110.848 96.0548 110.611 94.1636C110.375 92.2805 109.592 90.7485 108.408 89.4581C108.221 89.2546 108.234 88.9383 108.438 88.7516Z" fill="#394647"/>
<path fill-rule="evenodd" clip-rule="evenodd" d="M110.822 84.7216C110.967 84.4865 111.275 84.4135 111.51 84.5584C113.164 85.5781 114.484 86.9909 115.315 88.9439C116.142 90.8895 116.47 93.3394 116.199 96.4183C116.175 96.6934 115.932 96.8967 115.657 96.8725C115.382 96.8482 115.178 96.6056 115.203 96.3305C115.464 93.3631 115.14 91.0881 114.394 89.3353C113.652 87.5899 112.479 86.3307 110.986 85.4096C110.751 85.2646 110.677 84.9566 110.822 84.7216Z" fill="#394647"/>
<path d="M50.4608 147.354C50.4608 148.022 52.6962 148.663 56.6753 149.136C60.6544 149.608 66.0512 149.874 71.6784 149.874C77.3057 149.874 82.7024 149.608 86.6815 149.136C90.6606 148.663 92.896 148.022 92.896 147.354C92.896 146.685 90.6606 146.044 86.6815 145.572C82.7024 145.099 77.3057 144.834 71.6784 144.834C66.0512 144.834 60.6544 145.099 56.6753 145.572C52.6962 146.044 50.4608 146.685 50.4608 147.354Z" fill="#FFDBCC"/>
<path d="M48.464 142.15C48.011 142.337 47.5129 142.385 47.0327 142.288C46.5525 142.191 46.1118 141.955 45.7662 141.607C45.4206 141.26 45.1857 140.818 45.0912 140.338C44.9966 139.857 45.0468 139.359 45.2352 138.907L48.5248 131.013C48.6499 130.713 48.833 130.44 49.0635 130.21C49.294 129.981 49.5674 129.799 49.8682 129.675C50.169 129.551 50.4912 129.488 50.8165 129.489C51.1418 129.489 51.4638 129.554 51.764 129.679C52.0643 129.804 52.3369 129.987 52.5664 130.218C52.796 130.448 52.9778 130.722 53.1017 131.023C53.2255 131.323 53.2889 131.646 53.2882 131.971C53.2875 132.296 53.2227 132.618 53.0976 132.918L49.8064 140.813C49.6819 141.113 49.4992 141.386 49.2688 141.616C49.0385 141.845 48.7649 142.027 48.464 142.15Z" fill="#FFDBCC"/>
<path fill-rule="evenodd" clip-rule="evenodd" d="M48.0834 141.226L48.0846 141.225C48.2635 141.152 48.4261 141.044 48.563 140.907C48.7 140.771 48.8086 140.609 48.8825 140.43L48.8834 140.428L52.1745 132.534C52.2492 132.355 52.2878 132.163 52.2882 131.969C52.2886 131.775 52.2508 131.583 52.177 131.403C52.1031 131.224 51.9947 131.061 51.8578 130.923C51.721 130.786 51.5584 130.677 51.3793 130.602C51.2003 130.528 51.0083 130.489 50.8144 130.489C50.6204 130.488 50.4283 130.526 50.2489 130.6C50.0696 130.674 49.9065 130.782 49.7691 130.919C49.6316 131.056 49.5225 131.218 49.4479 131.397C49.4479 131.397 49.4479 131.397 49.4479 131.397L46.1583 139.292L46.1583 139.292C46.0459 139.561 46.016 139.858 46.0724 140.145C46.1287 140.431 46.2688 140.695 46.4748 140.902C46.6809 141.109 46.9437 141.25 47.23 141.308C47.5164 141.365 47.8133 141.337 48.0834 141.226ZM48.5248 131.013L45.2352 138.907C45.0468 139.359 44.9966 139.857 45.0912 140.338C45.1857 140.818 45.4206 141.26 45.7662 141.607C46.1118 141.955 46.5525 142.191 47.0327 142.288C47.5129 142.385 48.011 142.337 48.464 142.15C48.7649 142.027 49.0385 141.845 49.2688 141.616C49.4992 141.386 49.6819 141.113 49.8064 140.813L53.0976 132.918C53.2227 132.618 53.2875 132.296 53.2882 131.971C53.2889 131.646 53.2255 131.323 53.1017 131.023C52.9778 130.722 52.796 130.448 52.5664 130.218C52.3369 129.987 52.0643 129.804 51.764 129.679C51.4638 129.554 51.1418 129.489 50.8165 129.489C50.4912 129.488 50.169 129.551 49.8682 129.675C49.5674 129.799 49.294 129.981 49.0635 130.21C48.833 130.44 48.6499 130.713 48.5248 131.013Z" fill="#394647"/>
<path d="M91.4112 137.622C91.8923 137.709 92.3883 137.652 92.8369 137.457C93.2854 137.263 93.6663 136.94 93.9317 136.529C94.197 136.119 94.3349 135.639 94.328 135.15C94.3211 134.661 94.1697 134.185 93.8928 133.782L89.0272 126.742C88.6393 126.24 88.0735 125.906 87.4463 125.809C86.8192 125.711 86.1787 125.859 85.6569 126.22C85.1352 126.581 84.772 127.129 84.6423 127.75C84.5126 128.371 84.6263 129.019 84.96 129.558L89.824 136.598C90.1967 137.136 90.7674 137.505 91.4112 137.622Z" fill="#FFDBCC"/>
<path fill-rule="evenodd" clip-rule="evenodd" d="M91.5901 136.639C91.8766 136.69 92.1719 136.656 92.439 136.54C92.7064 136.424 92.9336 136.231 93.0918 135.987C93.25 135.742 93.3322 135.456 93.3281 135.164C93.324 134.873 93.2339 134.59 93.0692 134.35C93.069 134.349 93.0688 134.349 93.0686 134.349L88.2215 127.335C87.9907 127.046 87.6595 126.854 87.2931 126.797C86.9192 126.739 86.5373 126.827 86.2262 127.042C85.9151 127.257 85.6985 127.584 85.6212 127.954C85.5454 128.318 85.6091 128.696 85.7991 129.014L90.646 136.029C90.6461 136.029 90.6463 136.029 90.6464 136.029C90.8681 136.349 91.2074 136.568 91.5901 136.639ZM91.4112 137.622C90.7674 137.505 90.1967 137.136 89.824 136.598L84.96 129.558C84.6263 129.019 84.5126 128.371 84.6423 127.75C84.772 127.129 85.1352 126.581 85.6569 126.22C86.1787 125.859 86.8192 125.711 87.4463 125.809C88.0735 125.906 88.6393 126.24 89.0272 126.742L93.8928 133.782C94.1697 134.185 94.3211 134.661 94.328 135.15C94.3349 135.639 94.197 136.119 93.9317 136.529C93.6663 136.94 93.2854 137.263 92.8369 137.457C92.3883 137.652 91.8923 137.709 91.4112 137.622Z" fill="#394647"/>
<path d="M37.3654 118.309C39.2625 122.087 41.8853 125.455 45.084 128.22C48.2827 130.985 51.9947 133.093 56.008 134.424C60.0214 135.754 64.2575 136.281 68.4745 135.975C72.6915 135.668 76.8069 134.534 80.5855 132.637C84.3642 130.74 87.7322 128.117 90.4972 124.918C93.2623 121.719 95.3702 118.007 96.7007 113.994C98.0312 109.981 98.5581 105.745 98.2515 101.528C97.9448 97.3105 96.8106 93.1952 94.9135 89.4165C93.0164 85.6378 90.3937 82.2698 87.1949 79.5048C83.9962 76.7398 80.2842 74.6318 76.2709 73.3013C72.2575 71.9709 68.0214 71.4439 63.8044 71.7505C59.5874 72.0572 55.4721 73.1914 51.6934 75.0885C47.9148 76.9856 44.5468 79.6084 41.7817 82.8071C39.0167 86.0058 36.9087 89.7178 35.5782 93.7311C34.2478 97.7445 33.7208 101.981 34.0274 106.198C34.3341 110.415 35.4683 114.53 37.3654 118.309Z" fill="#FFDBCC"/>
<path fill-rule="evenodd" clip-rule="evenodd" d="M38.2591 117.86C40.0973 121.521 42.6386 124.785 45.7379 127.464C48.8373 130.143 52.434 132.185 56.3227 133.475C60.2114 134.764 64.316 135.274 68.402 134.977C72.488 134.68 76.4755 133.581 80.1368 131.743C83.7981 129.905 87.0615 127.363 89.7407 124.264C92.4199 121.165 94.4623 117.568 95.7515 113.679C97.0406 109.791 97.5512 105.686 97.2541 101.6C96.957 97.514 95.858 93.5265 94.0198 89.8652C92.1817 86.2039 89.6403 82.9405 86.541 80.2613C83.4416 77.5822 79.8449 75.5397 75.9562 74.2505C72.0675 72.9614 67.963 72.4508 63.8769 72.7479C59.7909 73.045 55.8034 74.144 52.1421 75.9822C48.4808 77.8204 45.2174 80.3617 42.5382 83.461C39.8591 86.5604 37.8166 90.1571 36.5274 94.0458C35.2383 97.9345 34.7277 102.039 35.0248 106.125C35.3219 110.211 36.421 114.199 38.2591 117.86ZM45.084 128.22C41.8853 125.455 39.2625 122.087 37.3654 118.309C35.4683 114.53 34.3341 110.415 34.0274 106.198C33.7208 101.981 34.2478 97.7445 35.5782 93.7311C36.9087 89.7178 39.0167 86.0058 41.7817 82.8071C44.5468 79.6084 47.9148 76.9856 51.6934 75.0885C55.4721 73.1914 59.5874 72.0572 63.8044 71.7505C68.0214 71.4439 72.2575 71.9709 76.2709 73.3013C80.2842 74.6318 83.9962 76.7398 87.1949 79.5048C90.3937 82.2698 93.0164 85.6379 94.9135 89.4165C96.8106 93.1952 97.9448 97.3105 98.2515 101.528C98.5581 105.745 98.0312 109.981 96.7007 113.994C95.3702 118.007 93.2623 121.719 90.4972 124.918C87.7322 128.117 84.3642 130.74 80.5855 132.637C76.8069 134.534 72.6915 135.668 68.4745 135.975C64.2575 136.281 60.0214 135.754 56.008 134.424C51.9947 133.093 48.2827 130.985 45.084 128.22Z" fill="#394647"/>
<path d="M43.0972 110.623C43.9851 113.649 45.4603 116.47 47.4387 118.926C49.417 121.382 51.8597 123.424 54.6273 124.936C57.3949 126.448 60.4331 127.4 63.5686 127.738C66.7041 128.075 69.8754 127.792 72.9014 126.904C75.9275 126.016 78.749 124.541 81.2049 122.563C83.6608 120.584 85.703 118.142 87.2149 115.374C88.7268 112.606 89.6787 109.568 90.0164 106.433C90.3541 103.297 90.0709 100.126 89.183 97.0999C88.2951 94.0739 86.8198 91.2524 84.8415 88.7965C82.8631 86.3406 80.4205 84.2984 77.6529 82.7865C74.8853 81.2746 71.847 80.3227 68.7115 79.985C65.5761 79.6473 62.4048 79.9305 59.3787 80.8184C56.3527 81.7063 53.5312 83.1815 51.0753 85.1599C48.6194 87.1382 46.5772 89.5809 45.0653 92.3485C43.5534 95.1161 42.6014 98.1543 42.2638 101.29C41.9261 104.425 42.2093 107.597 43.0972 110.623Z" fill="#F7F7F2"/>
<path fill-rule="evenodd" clip-rule="evenodd" d="M44.0567 110.341C44.9077 113.241 46.3215 115.945 48.2174 118.299C50.1134 120.652 52.4544 122.61 55.1067 124.058C57.759 125.507 60.6708 126.42 63.6757 126.743C66.6806 127.067 69.7199 126.796 72.6199 125.945C75.5199 125.094 78.2239 123.68 80.5776 121.784C82.9312 119.888 84.8884 117.547 86.3373 114.895C87.7862 112.242 88.6985 109.331 89.0222 106.326C89.3458 103.321 89.0744 100.282 88.2234 97.3815C87.3725 94.4815 85.9587 91.7774 84.0627 89.4238C82.1668 87.0702 79.8258 85.113 77.1735 83.6641C74.5211 82.2152 71.6094 81.3028 68.6045 80.9792C65.5995 80.6556 62.5603 80.927 59.6603 81.7779C56.7603 82.6289 54.0562 84.0427 51.7026 85.9386C49.3489 87.8346 47.3918 90.1756 45.9429 92.8279C44.4939 95.4802 43.5816 98.392 43.258 101.397C42.9344 104.402 43.2058 107.441 44.0567 110.341ZM47.4387 118.926C45.4603 116.47 43.9851 113.649 43.0972 110.623C42.2093 107.597 41.9261 104.425 42.2638 101.29C42.6014 98.1543 43.5534 95.1161 45.0653 92.3485C46.5772 89.5809 48.6194 87.1382 51.0753 85.1599C53.5312 83.1815 56.3527 81.7063 59.3787 80.8184C62.4048 79.9305 65.5761 79.6473 68.7115 79.985C71.847 80.3227 74.8853 81.2746 77.6529 82.7865C80.4205 84.2984 82.8631 86.3406 84.8415 88.7965C86.8198 91.2524 88.2951 94.0739 89.183 97.0999C90.0709 100.126 90.3541 103.297 90.0164 106.433C89.6787 109.568 88.7268 112.606 87.2149 115.374C85.703 118.142 83.6608 120.584 81.2049 122.563C78.749 124.541 75.9275 126.016 72.9014 126.904C69.8754 127.792 66.7041 128.075 63.5686 127.738C60.4331 127.4 57.3949 126.448 54.6273 124.936C51.8597 123.424 49.417 121.382 47.4387 118.926Z" fill="#394647"/>
<path d="M68.5216 104.518C68.6056 104.221 68.6328 103.91 68.6016 103.602L67.04 88.824C66.9711 88.1707 66.6454 87.5716 66.1347 87.1584C65.624 86.7452 64.9701 86.5518 64.3168 86.6208C63.6635 86.6897 63.0644 87.0154 62.6512 87.5261C62.238 88.0368 62.0446 88.6907 62.1136 89.344L63.5648 103.104L59.0176 108.725C58.8131 108.978 58.6603 109.269 58.5682 109.581C58.476 109.893 58.4462 110.22 58.4804 110.543C58.5147 110.867 58.6123 111.18 58.7678 111.466C58.9232 111.752 59.1334 112.004 59.3864 112.209C59.6394 112.413 59.9302 112.566 60.2422 112.658C60.5542 112.75 60.8813 112.78 61.2048 112.746C61.5283 112.712 61.8419 112.614 62.1277 112.459C62.4135 112.303 62.6659 112.093 62.8704 111.84L68.064 105.422C68.2681 105.168 68.4203 104.876 68.512 104.563C68.5162 104.548 68.5194 104.534 68.5216 104.518Z" fill="#FFDBCC"/>
<path fill-rule="evenodd" clip-rule="evenodd" d="M67.543 104.313C67.5476 104.291 67.553 104.269 67.5592 104.247C67.6089 104.071 67.6251 103.887 67.6069 103.704C67.6068 103.704 67.6068 103.703 67.6067 103.702L66.0455 88.9291C66.0044 88.5396 65.8102 88.1822 65.5057 87.9358C65.2012 87.6895 64.8113 87.5742 64.4218 87.6153C64.0322 87.6564 63.675 87.8506 63.4286 88.1551C63.1823 88.4596 63.067 88.8495 63.1081 89.239L64.5593 102.999C64.5871 103.263 64.509 103.527 64.3422 103.733L59.7952 109.354C59.6732 109.504 59.5822 109.678 59.5272 109.864C59.4722 110.05 59.4545 110.245 59.4749 110.438C59.4953 110.631 59.5535 110.818 59.6462 110.988C59.7389 111.159 59.8643 111.309 60.0151 111.431C60.166 111.553 60.3394 111.644 60.5255 111.699C60.7115 111.754 60.9066 111.772 61.0995 111.752C61.2924 111.731 61.4794 111.673 61.6499 111.58C61.8203 111.487 61.9708 111.362 62.0928 111.211L67.2841 104.797C67.2845 104.796 67.2848 104.796 67.2852 104.795C67.4002 104.651 67.4875 104.488 67.543 104.313ZM68.512 104.563C68.4203 104.876 68.2681 105.168 68.064 105.422L62.8704 111.84C62.6659 112.093 62.4135 112.303 62.1277 112.459C61.8419 112.614 61.5283 112.712 61.2048 112.746C60.8813 112.78 60.5542 112.75 60.2422 112.658C59.9302 112.566 59.6394 112.413 59.3864 112.209C59.1334 112.004 58.9232 111.752 58.7678 111.466C58.6123 111.18 58.5147 110.867 58.4804 110.543C58.4462 110.22 58.476 109.893 58.5682 109.581C58.6603 109.269 58.8131 108.978 59.0176 108.725L63.5648 103.104L62.1136 89.344C62.0446 88.6907 62.238 88.0368 62.6512 87.5261C63.0644 87.0154 63.6635 86.6897 64.3168 86.6208C64.9701 86.5518 65.624 86.7452 66.1347 87.1584C66.6454 87.5716 66.9711 88.1707 67.04 88.824L68.6016 103.602C68.6328 103.91 68.6056 104.221 68.5216 104.518C68.5194 104.534 68.5162 104.548 68.512 104.563Z" fill="#394647"/>
<path d="M32.2624 96.2992C31.9271 96.5765 31.5404 96.7848 31.1244 96.9123C30.7084 97.0397 30.2713 97.0837 29.8383 97.0418C29.4052 96.9999 28.9847 96.8728 28.6009 96.668C28.217 96.4631 27.8774 96.1845 27.6016 95.848C25.2668 93.0455 23.9764 89.52 23.9504 85.8725C23.9244 82.2249 25.1644 78.6813 27.4591 75.8459C29.7537 73.0105 32.9608 71.0588 36.5336 70.3236C40.1063 69.5884 43.8235 70.1153 47.0512 71.8144C47.4376 72.0142 47.7807 72.2883 48.0609 72.621C48.3411 72.9537 48.5529 73.3384 48.6842 73.7531C48.8154 74.1679 48.8636 74.6044 48.8258 75.0377C48.788 75.4711 48.665 75.8927 48.464 76.2784C46.3319 80.0273 43.8567 83.5705 41.0704 86.8624C38.4323 90.2734 35.4837 93.4325 32.2624 96.2992Z" fill="#F7F7F2"/>
<path fill-rule="evenodd" clip-rule="evenodd" d="M47.0512 71.8144C43.8235 70.1153 40.1063 69.5884 36.5336 70.3236C32.9608 71.0588 29.7537 73.0105 27.4591 75.8459C25.1644 78.6813 23.9244 82.2249 23.9504 85.8725C23.9764 89.52 25.2668 93.0455 27.6016 95.848C27.8774 96.1845 28.217 96.4631 28.6009 96.668C28.9847 96.8728 29.4052 96.9999 29.8383 97.0418C30.2713 97.0837 30.7084 97.0397 31.1244 96.9123C31.5404 96.7848 31.9271 96.5765 32.2624 96.2992C35.4837 93.4325 38.4323 90.2734 41.0704 86.8624C43.8567 83.5705 46.3319 80.0273 48.464 76.2784C48.665 75.8927 48.788 75.4711 48.8258 75.0377C48.8636 74.6044 48.8154 74.1679 48.6842 73.7531C48.5529 73.3384 48.3411 72.9537 48.0609 72.621C47.7807 72.2883 47.4376 72.0142 47.0512 71.8144ZM47.5849 75.8013C45.4856 79.4901 43.0492 82.9767 40.3071 86.2163C40.2976 86.2276 40.2884 86.239 40.2794 86.2506C37.6831 89.6075 34.7817 92.717 31.6123 95.5391C31.3815 95.7272 31.1163 95.8689 30.8315 95.9561C30.5414 96.045 30.2366 96.0757 29.9346 96.0465C29.6326 96.0172 29.3394 95.9286 29.0717 95.7858C28.8041 95.6429 28.5673 95.4486 28.3749 95.214L28.3749 95.214L28.3699 95.2079C26.1832 92.5833 24.9747 89.2814 24.9504 85.8653C24.926 82.4493 26.0874 79.1305 28.2364 76.475C30.3854 73.8194 33.3891 71.9916 36.7351 71.3031C40.0812 70.6145 43.5625 71.108 46.5854 72.6993L46.5854 72.6993L46.5918 72.7026C46.8613 72.842 47.1006 73.0332 47.2961 73.2652C47.4915 73.4973 47.6393 73.7656 47.7308 74.0549C47.8223 74.3441 47.8559 74.6486 47.8295 74.9509C47.8037 75.2475 47.7206 75.5363 47.5849 75.8013Z" fill="#394647"/>
<path d="M98.6432 89.0736C99.0383 89.2571 99.4658 89.3606 99.9011 89.3782C100.336 89.3958 100.771 89.3272 101.179 89.1762C101.588 89.0253 101.963 88.795 102.282 88.4987C102.601 88.2024 102.859 87.8458 103.04 87.4496C104.586 84.1437 104.937 80.4037 104.033 76.8679C103.129 73.332 101.025 70.2197 98.0818 68.062C95.1384 65.9043 91.5373 64.835 87.8932 65.0367C84.2492 65.2384 80.7881 66.6986 78.1008 69.168C77.7778 69.4597 77.5156 69.8123 77.3293 70.2056C77.1429 70.5988 77.036 71.025 77.0148 71.4597C76.9935 71.8944 77.0583 72.3289 77.2054 72.7385C77.3525 73.1481 77.579 73.5246 77.872 73.8464C80.8897 76.9271 84.1865 79.7214 87.72 82.1936C91.1403 84.8201 94.797 87.1233 98.6432 89.0736Z" fill="#F7F7F2"/>
<path fill-rule="evenodd" clip-rule="evenodd" d="M87.8656 64.5375C91.6252 64.3294 95.3406 65.4325 98.3774 67.6587C101.414 69.8849 103.584 73.096 104.517 76.744C105.45 80.3912 105.088 84.2491 103.494 87.6593C103.286 88.1147 102.989 88.5245 102.622 88.8652C102.255 89.2064 101.823 89.4715 101.353 89.6453C100.882 89.819 100.382 89.8981 99.8808 89.8778C99.3797 89.8575 98.8875 89.7383 98.4326 89.5271L98.4171 89.5196C94.5466 87.5569 90.8666 85.2395 87.4243 82.5969C83.8689 80.1086 80.5516 77.2964 77.5148 74.1963C77.5105 74.1919 77.5064 74.1875 77.5023 74.183C77.165 73.8125 76.9042 73.3791 76.7348 72.9075C76.5655 72.436 76.4909 71.9357 76.5154 71.4353C76.5399 70.9348 76.6629 70.4442 76.8775 69.9914C77.0917 69.5394 77.393 69.134 77.764 68.7984C80.5364 66.2515 84.1067 64.7456 87.8656 64.5375ZM97.7862 68.4652C94.9361 66.376 91.4493 65.3406 87.9209 65.536C84.3924 65.7313 81.0412 67.1451 78.4391 69.5362L78.4359 69.5391L78.4359 69.5391C78.1618 69.7866 77.9393 70.0859 77.7811 70.4197C77.6229 70.7535 77.5322 71.1152 77.5142 71.4841C77.4961 71.853 77.5511 72.2219 77.676 72.5695C77.7998 72.9144 77.99 73.2316 78.2358 73.5033C81.2302 76.5592 84.5011 79.3313 88.0066 81.7839C88.0127 81.7882 88.0187 81.7925 88.0245 81.797C91.4179 84.4028 95.0457 86.6882 98.8614 88.6236C99.1946 88.7771 99.5547 88.8638 99.9213 88.8786C100.291 88.8936 100.659 88.8353 101.006 88.7072C101.353 88.5791 101.671 88.3837 101.942 88.1322C102.213 87.8807 102.432 87.5781 102.585 87.2419L102.587 87.2378C104.084 84.0368 104.424 80.4154 103.548 76.9917C102.673 73.5681 100.636 70.5545 97.7862 68.4652Z" fill="#394647"/>
<path d="M108.885 5.1392C103.687 5.63165 98.6799 7.35033 94.2753 10.1541C89.8707 12.9578 86.1942 16.7665 83.5478 21.2674C80.9014 25.7682 79.3606 30.8328 79.052 36.0449C78.7434 41.257 79.6759 46.4679 81.7728 51.2496L73.8112 69.448C73.6875 69.7358 73.6481 70.0528 73.6977 70.3622C73.7472 70.6715 73.8836 70.9603 74.0911 71.1951C74.2985 71.4298 74.5684 71.6008 74.8692 71.6881C75.1701 71.7754 75.4895 71.7753 75.7904 71.688L94.7392 66.1152C99.1989 68.8609 104.248 70.5062 109.469 70.9153C114.69 71.3243 119.934 70.4854 124.767 68.4677C129.6 66.45 133.883 63.3115 137.264 59.3113C140.644 55.3112 143.025 50.5642 144.208 45.4625C145.392 40.3608 145.344 35.0507 144.07 29.9708C142.796 24.8909 140.332 20.187 136.881 16.2475C133.43 12.3081 129.092 9.24617 124.224 7.31465C119.356 5.38314 114.098 4.63746 108.885 5.1392Z" fill="#F7F7F2"/>
<path fill-rule="evenodd" clip-rule="evenodd" d="M108.981 6.1346L108.979 6.13474C103.939 6.61227 99.0834 8.27888 94.8123 10.9976C90.5412 13.7164 86.976 17.4098 84.4098 21.7742C81.8436 26.1387 80.3495 31.0498 80.0503 36.104C79.7511 41.1582 80.6553 46.2112 82.6886 50.848C82.8007 51.1037 82.8009 51.3946 82.689 51.6504L74.7299 69.8429C74.7296 69.8436 74.7293 69.8443 74.729 69.8451C74.6809 69.9582 74.6656 70.0826 74.6851 70.204C74.7046 70.3261 74.7585 70.4402 74.8405 70.533C74.9224 70.6257 75.029 70.6932 75.1478 70.7277C75.266 70.762 75.3914 70.7621 75.5097 70.7282C75.5104 70.728 75.511 70.7278 75.5116 70.7276L94.4571 65.1558C94.729 65.0759 95.0221 65.115 95.2635 65.2636C99.5881 67.9262 104.484 69.5217 109.547 69.9183C114.61 70.315 119.695 69.5014 124.382 67.5449C129.068 65.5883 133.222 62.5448 136.5 58.6659C139.778 54.7869 142.086 50.1837 143.234 45.2365C144.382 40.2893 144.336 35.1401 143.1 30.2141C141.865 25.288 139.475 20.7266 136.129 16.9065C132.783 13.0863 128.575 10.1172 123.855 8.24416C119.134 6.37115 114.036 5.64805 108.981 6.1346ZM108.885 5.1392C103.687 5.63165 98.6799 7.35033 94.2753 10.1541C89.8707 12.9578 86.1942 16.7665 83.5478 21.2674C80.9014 25.7682 79.3606 30.8328 79.052 36.0449C78.7434 41.257 79.6759 46.4679 81.7728 51.2496L73.8112 69.448C73.6875 69.7358 73.6481 70.0528 73.6977 70.3622C73.7472 70.6715 73.8836 70.9603 74.0911 71.1951C74.2985 71.4298 74.5684 71.6008 74.8692 71.6881C75.1701 71.7754 75.4895 71.7753 75.7904 71.688L94.7392 66.1152C99.1989 68.8609 104.248 70.5062 109.469 70.9153C114.69 71.3243 119.934 70.4854 124.767 68.4677C129.6 66.45 133.883 63.3115 137.264 59.3113C140.644 55.3112 143.025 50.5642 144.208 45.4625C145.392 40.3608 145.344 35.0507 144.07 29.9708C142.796 24.8909 140.332 20.187 136.881 16.2475C133.43 12.3081 129.092 9.24617 124.224 7.31465C119.356 5.38314 114.098 4.63746 108.885 5.1392Z" fill="#394647"/>
<path d="M108.885 5.1392C103.687 5.63165 98.6799 7.35033 94.2753 10.1541C89.8707 12.9578 86.1942 16.7665 83.5478 21.2674C80.9014 25.7682 79.3606 30.8328 79.052 36.0449C78.7434 41.257 79.6759 46.4679 81.7728 51.2496L73.8112 69.448C73.6875 69.7358 73.6481 70.0528 73.6977 70.3622C73.7472 70.6715 73.8836 70.9603 74.0911 71.1951C74.2985 71.4298 74.5684 71.6008 74.8692 71.6881C75.1701 71.7754 75.4895 71.7753 75.7904 71.688L94.7392 66.1152C99.1989 68.8609 104.248 70.5062 109.469 70.9153C114.69 71.3243 119.934 70.4854 124.767 68.4677C129.6 66.45 133.883 63.3115 137.264 59.3113C140.644 55.3112 143.025 50.5642 144.208 45.4625C145.392 40.3608 145.344 35.0507 144.07 29.9708C142.796 24.8909 140.332 20.187 136.881 16.2475C133.43 12.3081 129.092 9.24617 124.224 7.31465C119.356 5.38314 114.098 4.63746 108.885 5.1392Z" fill="#F7F7F2"/>
<path fill-rule="evenodd" clip-rule="evenodd" d="M108.981 6.1346L108.979 6.13474C103.939 6.61227 99.0834 8.27888 94.8123 10.9976C90.5412 13.7164 86.976 17.4098 84.4098 21.7742C81.8436 26.1387 80.3495 31.0498 80.0503 36.104C79.7511 41.1582 80.6553 46.2112 82.6886 50.848C82.8007 51.1037 82.8009 51.3946 82.689 51.6504L74.7299 69.8429C74.7296 69.8436 74.7293 69.8443 74.729 69.8451C74.6809 69.9582 74.6656 70.0826 74.6851 70.204C74.7046 70.3261 74.7585 70.4402 74.8405 70.533C74.9224 70.6257 75.029 70.6932 75.1478 70.7277C75.266 70.762 75.3914 70.7621 75.5097 70.7282C75.5104 70.728 75.511 70.7278 75.5116 70.7276L94.4571 65.1558C94.729 65.0759 95.0221 65.115 95.2635 65.2636C99.5881 67.9262 104.484 69.5217 109.547 69.9183C114.61 70.315 119.695 69.5014 124.382 67.5449C129.068 65.5883 133.222 62.5448 136.5 58.6659C139.778 54.7869 142.086 50.1837 143.234 45.2365C144.382 40.2893 144.336 35.1401 143.1 30.2141C141.865 25.288 139.475 20.7266 136.129 16.9065C132.783 13.0863 128.575 10.1172 123.855 8.24416C119.134 6.37115 114.036 5.64805 108.981 6.1346ZM108.885 5.1392C103.687 5.63165 98.6799 7.35033 94.2753 10.1541C89.8707 12.9578 86.1942 16.7665 83.5478 21.2674C80.9014 25.7682 79.3606 30.8328 79.052 36.0449C78.7434 41.257 79.6759 46.4679 81.7728 51.2496L73.8112 69.448C73.6875 69.7358 73.6481 70.0528 73.6977 70.3622C73.7472 70.6715 73.8836 70.9603 74.0911 71.1951C74.2985 71.4298 74.5684 71.6008 74.8692 71.6881C75.1701 71.7754 75.4895 71.7753 75.7904 71.688L94.7392 66.1152C99.1989 68.8609 104.248 70.5062 109.469 70.9153C114.69 71.3243 119.934 70.4854 124.767 68.4677C129.6 66.45 133.883 63.3115 137.264 59.3113C140.644 55.3112 143.025 50.5642 144.208 45.4625C145.392 40.3608 145.344 35.0507 144.07 29.9708C142.796 24.8909 140.332 20.187 136.881 16.2475C133.43 12.3081 129.092 9.24617 124.224 7.31465C119.356 5.38314 114.098 4.63746 108.885 5.1392Z" fill="#394647"/>
<path d="M113.16 40.28C113.087 40.564 112.922 40.8157 112.69 40.9954C112.458 41.1751 112.173 41.2726 111.88 41.2726C111.587 41.2726 111.302 41.1751 111.07 40.9954C110.838 40.8157 110.673 40.564 110.6 40.28C105.427 19.8912 105.64 20.8096 105.626 20.6C105.543 19.7286 105.643 18.8496 105.92 18.0192C106.197 17.1889 106.645 16.4255 107.234 15.7781C107.823 15.1306 108.54 14.6134 109.341 14.2594C110.141 13.9054 111.007 13.7226 111.882 13.7226C112.758 13.7226 113.623 13.9054 114.424 14.2594C115.224 14.6134 115.942 15.1306 116.531 15.7781C117.12 16.4255 117.568 17.1889 117.844 18.0192C118.121 18.8496 118.222 19.7286 118.139 20.6C118.115 20.8096 118.334 19.8848 113.16 40.28Z" fill="#FFDBCC"/>
<path fill-rule="evenodd" clip-rule="evenodd" d="M105.626 20.6C105.626 20.6105 105.626 20.6182 105.627 20.6259C105.632 20.7711 105.687 20.9145 110.6 40.28C110.673 40.564 110.838 40.8157 111.07 40.9954C111.302 41.1751 111.587 41.2726 111.88 41.2726C112.173 41.2726 112.458 41.1751 112.69 40.9954C112.922 40.8157 113.087 40.564 113.16 40.28C118.074 20.9118 118.124 20.7705 118.137 20.6259C118.137 20.6182 118.138 20.6106 118.139 20.6C118.222 19.7286 118.121 18.8496 117.844 18.0192C117.568 17.1889 117.12 16.4255 116.531 15.7781C115.942 15.1306 115.224 14.6134 114.424 14.2594C113.623 13.9054 112.758 13.7226 111.882 13.7226C111.007 13.7226 110.141 13.9054 109.341 14.2594C108.54 14.6134 107.823 15.1306 107.234 15.7781C106.645 16.4255 106.197 17.1889 105.92 18.0192C105.643 18.8496 105.543 19.7286 105.626 20.6ZM117.148 20.4865C117.149 20.4812 117.148 20.4834 117.147 20.4853C117.147 20.4856 117.146 20.486 117.146 20.4863L117.148 20.4865ZM117.144 20.5057C117.125 20.5907 117.03 20.977 116.612 22.6244C116.434 23.323 116.2 24.2463 115.889 25.4686C115.158 28.345 114.006 32.8771 112.191 40.0321C112.173 40.1008 112.133 40.1616 112.077 40.2052C112.021 40.2489 111.951 40.2726 111.88 40.2726C111.809 40.2726 111.739 40.2489 111.683 40.2052C111.627 40.1616 111.587 40.1007 111.569 40.032C109.772 32.9501 108.625 28.4368 107.892 25.5562C107.571 24.2914 107.329 23.3414 107.148 22.6268C106.849 21.4511 106.715 20.9168 106.654 20.6628C106.637 20.5941 106.628 20.5536 106.623 20.5313C106.623 20.5228 106.622 20.5142 106.621 20.5057C106.552 19.773 106.636 19.0338 106.869 18.3356C107.102 17.6374 107.478 16.9955 107.973 16.451C108.469 15.9066 109.072 15.4716 109.745 15.174C110.418 14.8764 111.146 14.7226 111.882 14.7226C112.618 14.7226 113.346 14.8764 114.019 15.174C114.693 15.4716 115.296 15.9066 115.792 16.451C116.287 16.9955 116.663 17.6374 116.896 18.3356C117.129 19.0338 117.213 19.773 117.144 20.5057L117.144 20.5057Z" fill="#394647"/>
<path d="M111.878 57.832C110.803 57.832 109.751 57.5131 108.857 56.9157C107.963 56.3183 107.265 55.4692 106.853 54.4756C106.441 53.4821 106.333 52.3887 106.542 51.3336C106.752 50.2786 107.269 49.3093 108.029 48.5482C108.789 47.787 109.757 47.2683 110.812 47.0575C111.867 46.8467 112.96 46.9533 113.955 47.3638C114.949 47.7743 115.799 48.4703 116.398 49.3639C116.996 50.2574 117.317 51.3084 117.318 52.384C117.317 53.8271 116.744 55.2109 115.724 56.2321C114.704 57.2533 113.322 57.8286 111.878 57.832Z" fill="#FFDBCC"/>
<path fill-rule="evenodd" clip-rule="evenodd" d="M109.412 56.0842C110.142 56.5716 111 56.8318 111.877 56.832C113.055 56.8289 114.184 56.3591 115.017 55.5255C115.849 54.6919 116.317 53.5625 116.318 52.3845C116.317 51.507 116.055 50.6496 115.567 49.9205C115.078 49.1912 114.384 48.6232 113.573 48.2881C112.762 47.9531 111.869 47.8661 111.008 48.0381C110.147 48.2102 109.357 48.6335 108.737 49.2548C108.116 49.876 107.694 50.6671 107.523 51.5282C107.352 52.3893 107.441 53.2817 107.777 54.0926C108.113 54.9035 108.682 55.5966 109.412 56.0842ZM117.318 52.384C117.317 51.3084 116.996 50.2574 116.398 49.3639C115.799 48.4703 114.949 47.7743 113.955 47.3638C112.96 46.9533 111.867 46.8467 110.812 47.0575C109.757 47.2683 108.789 47.787 108.029 48.5482C107.269 49.3093 106.752 50.2786 106.542 51.3336C106.333 52.3887 106.441 53.4821 106.853 54.4756C107.265 55.4692 107.963 56.3183 108.857 56.9157C109.751 57.5131 110.803 57.832 111.878 57.832C113.322 57.8286 114.704 57.2533 115.724 56.2321C116.744 55.2109 117.317 53.8271 117.318 52.384Z" fill="#394647"/>
</g>
<defs>
<clipPath id="clip0_144_80569">
<rect width="160" height="160" fill="white"/>
</clipPath>
</defs>
</svg>
