<svg width="38" height="20" viewBox="0 0 38 20" fill="none" xmlns="http://www.w3.org/2000/svg">
<path fill-rule="evenodd" clip-rule="evenodd" d="M0 19.1409C0 8.58687 8.52306 0 19.0006 0C21.5553 0 23.9934 0.510065 26.2203 1.4359L26.2192 1.43809L25.0909 3.81627C24.7634 3.68249 24.43 3.55968 24.0916 3.44893C22.4885 2.91895 20.7767 2.63275 19.0006 2.63275C9.96475 2.63275 2.61346 10.0383 2.61346 19.1409H0ZM35.9781 10.5657L35.9825 10.5615C37.2729 13.1438 38.0001 16.0583 38.0001 19.1409H35.387C35.387 16.7616 34.8848 14.4985 33.981 12.4537C33.896 12.2607 33.808 12.0699 33.7155 11.8824C34.4711 11.4416 35.2267 11.001 35.9825 10.5604L35.9781 10.5657ZM18.9728 20L13.4297 15.2674L15.1069 13.2736L18.846 16.466L25.6241 9.7735L27.4399 11.64L18.9728 20ZM30.8193 9.16258C32.4241 9.16258 33.7251 7.85187 33.7251 6.23523C33.7251 4.6184 32.4241 3.30789 30.8193 3.30789C29.2146 3.30789 27.9134 4.6184 27.9134 6.23523C27.9134 7.85187 29.2146 9.16258 30.8193 9.16258Z" fill="#88A7AA"/>
</svg>
