<svg width="24" height="25" viewBox="0 0 24 25" fill="none" xmlns="http://www.w3.org/2000/svg">
<path fill-rule="evenodd" clip-rule="evenodd" d="M6.29289 6.79289C6.68342 6.40237 7.31658 6.40237 7.70711 6.79289L12 11.0858L16.2929 6.79289C16.6834 6.40237 17.3166 6.40237 17.7071 6.79289C18.0976 7.18342 18.0976 7.81658 17.7071 8.20711L13.4142 12.5L17.7071 16.7929C18.0976 17.1834 18.0976 17.8166 17.7071 18.2071C17.3166 18.5976 16.6834 18.5976 16.2929 18.2071L12 13.9142L7.70711 18.2071C7.31658 18.5976 6.68342 18.5976 6.29289 18.2071C5.90237 17.8166 5.90237 17.1834 6.29289 16.7929L10.5858 12.5L6.29289 8.20711C5.90237 7.81658 5.90237 7.18342 6.29289 6.79289Z" fill="#A0B9BB"/>
</svg>
